# xmcd CD database file
#
# Track frame offsets:
#	150
#	9268
#	25257
#	36474
#	46976
#	56734
#	69424
#	79505
#	88798
#	98315
#	106938
#	120109
#	128439
#	136137
#	151851
#	158383
#	165372
#	176395
#	184847
#	194842
#
# Disc length: 2775 seconds
#
# Revision: 0
# Processed by: cddbd v1.5.2PL0 Copyright (c) Steve Scherf et al.
# Submitted via: CDex 1.50
#
DISCID=e40ad514
DTITLE=Watson, Doc - - Doc's Prescription - CD 1
DYEAR=1900
DGENRE=Country
TTITLE0=Old Ruben
TTITLE1=Crawdad song
TTITLE2=Way down town
TTITLE3=Little sadie
TTITLE4=Foggy Mountain reel
TTITLE5=My home's across the Blue Ridge Mountains
TTITLE6=Handsome Molly
TTITLE7=Corn likker
TTITLE8=Free little bird
TTITLE9=The old man at the mill
TTITLE10=Daniel prayed
TTITLE11=Walking boss
TTITLE12=LeeHighway blues
TTITLE13=Claudie Allen
TTITLE14=Humpbacked mule
TTITLE15=Richmond Blues
TTITLE16=Pretty little pink
TTITLE17=I'm going back to Jericho
TTITLE18=Peg and Awl
TTITLE19=Rising Sun blues
EXTD=
EXTT0=
EXTT1=
EXTT2=
EXTT3=
EXTT4=
EXTT5=
EXTT6=
EXTT7=
EXTT8=
EXTT9=
EXTT10=
EXTT11=
EXTT12=
EXTT13=
EXTT14=
EXTT15=
EXTT16=
EXTT17=
EXTT18=
EXTT19=
PLAYORDER=
